{
    "asset" : {
        "generator" : "Khronos glTF Blender I/O v1.2.75",
        "version" : "2.0"
    },
    "scene" : 0,
    "scenes" : [
        {
            "name" : "Scene",
            "nodes" : [
                0
            ]
        }
    ],
    "nodes" : [
        {
            "mesh" : 0,
            "name" : "Mesh_0.003",
            "rotation" : [
                -0.7071068286895752,
                0,
                0,
                0.7071067094802856
            ]
        }
    ],
    "materials" : [
        {
            "emissiveFactor" : [
                0,
                0,
                0
            ],
            "name" : "defaultMat",
            "pbrMetallicRoughness" : {
                "metallicFactor" : 1,
                "roughnessFactor" : 1
            }
        }
    ],
    "meshes" : [
        {
            "name" : "Mesh_0.003",
            "primitives" : [
                {
                    "attributes" : {
                        "POSITION" : 0,
                        "NORMAL" : 1,
                        "TEXCOORD_0" : 2,
                        "COLOR_0" : 3
                    },
                    "indices" : 4,
                    "material" : 0
                }
            ]
        }
    ],
    "accessors" : [
        {
            "bufferView" : 0,
            "componentType" : 5126,
            "count" : 17531,
            "max" : [
                0.668556272983551,
                0.8799268007278442,
                0.9919244050979614
            ],
            "min" : [
                -0.6679636240005493,
                -0.9085731506347656,
                -1.005160927772522
            ],
            "type" : "VEC3"
        },
        {
            "bufferView" : 1,
            "componentType" : 5126,
            "count" : 17531,
            "type" : "VEC3"
        },
        {
            "bufferView" : 2,
            "componentType" : 5126,
            "count" : 17531,
            "type" : "VEC2"
        },
        {
            "bufferView" : 3,
            "componentType" : 5126,
            "count" : 17531,
            "type" : "VEC4"
        },
        {
            "bufferView" : 4,
            "componentType" : 5123,
            "count" : 93048,
            "type" : "SCALAR"
        }
    ],
    "bufferViews" : [
        {
            "buffer" : 0,
            "byteLength" : 210372,
            "byteOffset" : 0
        },
        {
            "buffer" : 0,
            "byteLength" : 210372,
            "byteOffset" : 210372
        },
        {
            "buffer" : 0,
            "byteLength" : 140248,
            "byteOffset" : 420744
        },
        {
            "buffer" : 0,
            "byteLength" : 280496,
            "byteOffset" : 560992
        },
        {
            "buffer" : 0,
            "byteLength" : 186096,
            "byteOffset" : 841488
        }
    ],
    "buffers" : [
        {
            "byteLength" : 1027584,
            "uri" : "skull2.bin"
        }
    ]
}
