{
  "asset": {
    "generator": "Khronos glTF Blender I/O v1.2.75",
    "version": "2.0"
  },
  "scene": 0,
  "scenes": [
    {
      "name": "Scene",
      "nodes": [0]
    }
  ],
  "nodes": [
    {
      "mesh": 0,
      "name": "dragon",
      "rotation": [0.7071068286895752, 0, 0, 0.7071067094802856]
    }
  ],
  "materials": [
    {
      "doubleSided": true,
      "emissiveFactor": [0, 0, 0],
      "name": "(null).001",
      "pbrMetallicRoughness": {
        "baseColorFactor": [
          0.800000011920929,
          0.800000011920929,
          0.800000011920929,
          1
        ],
        "metallicFactor": 0,
        "roughnessFactor": 0.5
      }
    }
  ],
  "meshes": [
    {
      "name": "Dragon.001",
      "primitives": [
        {
          "name": "Scene",
          "nodes": [0, 1, 2]
        }
      ]
    }
  ],
  "accessors": [
    {
      "bufferView": 0,
      "componentType": 5126,
      "count": 79086,
      "max": [8.66904354095459, 1.3194634914398193, 6.214841365814209],
      "min": [-8.66904354095459, -18.225360870361328, -0.7123635411262512],
      "type": "VEC3"
    },
    {
      "bufferView": 1,
      "componentType": 5126,
      "count": 79086,
      "type": "VEC3"
    },
    {
      "bufferView": 2,
      "componentType": 5126,
      "count": 79086,
      "type": "VEC2"
    },
    {
      "bufferView": 3,
      "componentType": 5125,
      "count": 416682,
      "type": "SCALAR"
    }
  ],
  "bufferViews": [
    {
      "buffer": 0,
      "byteLength": 949032,
      "byteOffset": 0
    },
    {
      "buffer": 0,
      "byteLength": 949032,
      "byteOffset": 949032
    },
    {
      "buffer": 0,
      "byteLength": 632688,
      "byteOffset": 1898064
    },
    {
      "buffer": 0,
      "byteLength": 1666728,
      "byteOffset": 2530752
    }
  ],
  "buffers": [
    {
      "byteLength": 4197480,
      "uri": "dragon.bin"
    }
  ]
}
