{
  "asset": {
    "generator": "glTF-Transform v0.9.9",
    "version": "2.0"
  },
  "accessors": [
    {
      "name": "position - test",
      "type": "VEC3",
      "componentType": 5126,
      "count": 720,
      "max": [
        24.1981258392334,
        30.912172317504883,
        29.043731689453125
      ],
      "min": [
        -23.38347816467285,
        -30.59031867980957,
        -29.324949264526367
      ],
      "normalized": false,
      "bufferView": 0,
      "byteOffset": 0
    },
    {
      "name": "normal - test",
      "type": "VEC3",
      "componentType": 5126,
      "count": 41864,
      "max": [
        0.9999380111694336,
        0.9999617338180542,
        0.9999343156814575
      ],
      "min": [
        -0.9999210238456726,
        -0.9999637007713318,
        -0.9998589754104614
      ],
      "normalized": false,
      "bufferView": 1,
      "byteOffset": 0
    },
    {
      "name": "color - test",
      "type": "VEC4",
      "componentType": 5126,
      "count": 41864,
      "max": [
        0.9914400577545166,
        0.9914400577545166,
        0.9914400577545166,
        1
      ],
      "min": [
        0,
        0,
        0,
        1
      ],
      "normalized": false,
      "bufferView": 1,
      "byteOffset": 502368
    },
    {
      "name": "indices - test",
      "type": "SCALAR",
      "componentType": 5123,
      "count": 4164,
      "max": [
        719
      ],
      "min": [
        0
      ],
      "normalized": false,
      "bufferView": 2,
      "byteOffset": 0
    }
  ],
  "bufferViews": [
    {
      "buffer": 0,
      "byteOffset": 0,
      "byteLength": 8640,
      "byteStride": 12,
      "target": 34962
    },
    {
      "buffer": 0,
      "byteOffset": 8640,
      "byteLength": 1172192
    },
    {
      "buffer": 0,
      "byteOffset": 1180832,
      "byteLength": 8328,
      "target": 34963
    }
  ],
  "buffers": [
    {
      "uri": "skull.bin",
      "byteLength": 1189160
    }
  ],
  "materials": [
    {
      "name": "default material",
      "alphaMode": "OPAQUE",
      "doubleSided": false,
      "pbrMetallicRoughness": {
        "baseColorFactor": [
          0.5,
          0.5,
          0.5,
          1
        ],
        "roughnessFactor": 0.3288090062081349,
        "metallicFactor": 0
      },
      "emissiveFactor": [
        0,
        0,
        0
      ]
    }
  ],
  "meshes": [
    {
      "primitives": [
        {
          "attributes": {
            "POSITION": 0
          },
          "mode": 4,
          "material": 0,
          "indices": 3
        }
      ]
    }
  ],
  "nodes": [
    {
      "name": "test",
      "rotation": [
        0,
        1,
        0,
        0
      ],
      "scale": [
        0.1,
        0.1,
        0.1
      ],
      "mesh": 0
    }
  ],
  "scenes": [
    {
      "nodes": [
        0
      ]
    }
  ]
}