{
  "asset": {
    "generator": "glTF-Transform v0.9.9",
    "version": "2.0"
  },
  "accessors": [
    {
      "name": "data_0_1",
      "type": "VEC3",
      "componentType": 5126,
      "count": 2857,
      "max": [
        23.589107513427734,
        30.417688369750977,
        29.13802146911621
      ],
      "min": [
        -23.8253231048584,
        -30.475801467895508,
        -28.84237289428711
      ],
      "normalized": false,
      "bufferView": 0,
      "byteOffset": 0
    },
    {
      "name": "data_0_2",
      "type": "SCALAR",
      "componentType": 5123,
      "count": 15156,
      "max": [
        2856
      ],
      "min": [
        0
      ],
      "normalized": false,
      "bufferView": 1,
      "byteOffset": 0
    }
  ],
  "bufferViews": [
    {
      "buffer": 0,
      "byteOffset": 0,
      "byteLength": 34284,
      "byteStride": 12,
      "target": 34962
    },
    {
      "buffer": 1,
      "byteOffset": 0,
      "byteLength": 30312,
      "target": 34963
    }
  ],
  "buffers": [
    {
      "name": "buffer_0_1",
      "uri": "skull_1.bin",
      "byteLength": 34284
    },
    {
      "name": "buffer_0_2",
      "uri": "skull_2.bin",
      "byteLength": 30312
    }
  ],
  "meshes": [
    {
      "name": "mesh",
      "primitives": [
        {
          "attributes": {
            "POSITION": 0
          },
          "mode": 4,
          "indices": 1
        }
      ]
    }
  ],
  "nodes": [
    {
      "name": "node",
      "rotation": [
        0,
        1,
        0,
        0
      ],
      "scale": [
        0.1,
        0.1,
        0.1
      ],
      "mesh": 0
    }
  ],
  "scenes": [
    {
      "name": "scene",
      "nodes": [
        0
      ]
    }
  ]
}