{
    "asset" : {
        "generator" : "Khronos glTF Blender I/O v1.2.75",
        "version" : "2.0"
    },
    "scene" : 0,
    "scenes" : [
        {
            "name" : "Scene",
            "nodes" : [
                0,
                1,
                2
            ]
        }
    ],
    "nodes" : [
        {
            "name" : "Light",
            "rotation" : [
                0.16907575726509094,
                0.7558803558349609,
                -0.27217137813568115,
                0.570947527885437
            ],
            "translation" : [
                4.076245307922363,
                5.903861999511719,
                -1.0054539442062378
            ]
        },
        {
            "name" : "Camera",
            "rotation" : [
                0.483536034822464,
                0.33687159419059753,
                -0.20870360732078552,
                0.7804827094078064
            ],
            "translation" : [
                7.358891487121582,
                4.958309173583984,
                6.925790786743164
            ]
        },
        {
            "mesh" : 0,
            "name" : "airplane",
            "rotation" : [
                0.7071068286895752,
                0,
                0,
                0.7071067094802856
            ]
        }
    ],
    "materials" : [
        {
            "doubleSided" : true,
            "emissiveFactor" : [
                0,
                0,
                0
            ],
            "name" : "airplane_body.001",
            "pbrMetallicRoughness" : {
                "baseColorTexture" : {
                    "index" : 0,
                    "texCoord" : 0
                },
                "metallicFactor" : 0,
                "roughnessFactor" : 0.850928783416748
            }
        },
        {
            "doubleSided" : true,
            "emissiveFactor" : [
                0,
                0,
                0
            ],
            "name" : "airplane_wings.001",
            "pbrMetallicRoughness" : {
                "baseColorTexture" : {
                    "index" : 1,
                    "texCoord" : 0
                },
                "metallicFactor" : 0,
                "roughnessFactor" : 0.850928783416748
            }
        }
    ],
    "meshes" : [
        {
            "name" : "11805_airplane_v2_L2.001",
            "primitives" : [
                {
                    "attributes" : {
                        "POSITION" : 0,
                        "NORMAL" : 1,
                        "TEXCOORD_0" : 2
                    },
                    "indices" : 3,
                    "material" : 0
                },
                {
                    "attributes" : {
                        "POSITION" : 4,
                        "NORMAL" : 5,
                        "TEXCOORD_0" : 6
                    },
                    "indices" : 7,
                    "material" : 1
                }
            ]
        }
    ],
    "textures" : [
        {
            "source" : 0
        },
        {
            "source" : 1
        }
    ],
    "images" : [
        {
            "mimeType" : "image/jpeg",
            "name" : "airplane_body_diffuse_v1",
            "uri" : "airplane_body_diffuse_v1.jpg"
        },
        {
            "mimeType" : "image/jpeg",
            "name" : "airplane_wings_diffuse_v1",
            "uri" : "airplane_wings_diffuse_v1.jpg"
        }
    ],
    "accessors" : [
        {
            "bufferView" : 0,
            "componentType" : 5126,
            "count" : 37649,
            "max" : [
                1.4594392776489258,
                2.2861814498901367,
                3.4257936477661133
            ],
            "min" : [
                -1.4729706048965454,
                0.13358841836452484,
                -3.443948268890381
            ],
            "type" : "VEC3"
        },
        {
            "bufferView" : 1,
            "componentType" : 5126,
            "count" : 37649,
            "type" : "VEC3"
        },
        {
            "bufferView" : 2,
            "componentType" : 5126,
            "count" : 37649,
            "type" : "VEC2"
        },
        {
            "bufferView" : 3,
            "componentType" : 5123,
            "count" : 177012,
            "type" : "SCALAR"
        },
        {
            "bufferView" : 4,
            "componentType" : 5126,
            "count" : 25409,
            "max" : [
                3.598931074142456,
                1.1095384359359741,
                1.8307374715805054
            ],
            "min" : [
                -3.6124579906463623,
                0.341761976480484,
                -0.7588083148002625
            ],
            "type" : "VEC3"
        },
        {
            "bufferView" : 5,
            "componentType" : 5126,
            "count" : 25409,
            "type" : "VEC3"
        },
        {
            "bufferView" : 6,
            "componentType" : 5126,
            "count" : 25409,
            "type" : "VEC2"
        },
        {
            "bufferView" : 7,
            "componentType" : 5123,
            "count" : 113712,
            "type" : "SCALAR"
        }
    ],
    "bufferViews" : [
        {
            "buffer" : 0,
            "byteLength" : 451788,
            "byteOffset" : 0
        },
        {
            "buffer" : 0,
            "byteLength" : 451788,
            "byteOffset" : 451788
        },
        {
            "buffer" : 0,
            "byteLength" : 301192,
            "byteOffset" : 903576
        },
        {
            "buffer" : 0,
            "byteLength" : 354024,
            "byteOffset" : 1204768
        },
        {
            "buffer" : 0,
            "byteLength" : 304908,
            "byteOffset" : 1558792
        },
        {
            "buffer" : 0,
            "byteLength" : 304908,
            "byteOffset" : 1863700
        },
        {
            "buffer" : 0,
            "byteLength" : 203272,
            "byteOffset" : 2168608
        },
        {
            "buffer" : 0,
            "byteLength" : 227424,
            "byteOffset" : 2371880
        }
    ],
    "buffers" : [
        {
            "byteLength" : 2599304,
            "uri" : "airplane.bin"
        }
    ]
}
