{
    "asset" : {
        "generator" : "Khronos glTF Blender I/O v1.2.75",
        "version" : "2.0"
    },
    "scene" : 0,
    "scenes" : [
        {
            "name" : "Scene",
            "nodes" : [
                0
            ]
        }
    ],
    "nodes" : [
        {
            "mesh" : 0,
            "name" : "airplane",
            "rotation" : [
                0.7071068286895752,
                0,
                0,
                0.7071067094802856
            ],
            "scale" : [
                0.004999999888241291,
                0.004999999888241291,
                0.004999999888241291
            ]
        }
    ],
    "materials" : [
        {
            "doubleSided" : true,
            "emissiveFactor" : [
                0,
                0,
                0
            ],
            "name" : "airplane_body.002",
            "pbrMetallicRoughness" : {
                "baseColorTexture" : {
                    "index" : 0,
                    "texCoord" : 0
                },
                "metallicFactor" : 0,
                "roughnessFactor" : 0.850928783416748
            }
        },
        {
            "doubleSided" : true,
            "emissiveFactor" : [
                0,
                0,
                0
            ],
            "name" : "airplane_wings.002",
            "pbrMetallicRoughness" : {
                "baseColorTexture" : {
                    "index" : 1,
                    "texCoord" : 0
                },
                "metallicFactor" : 0,
                "roughnessFactor" : 0.850928783416748
            }
        }
    ],
    "meshes" : [
        {
            "name" : "11805_airplane_v2_L2.002",
            "primitives" : [
                {
                    "attributes" : {
                        "POSITION" : 0,
                        "NORMAL" : 1,
                        "TEXCOORD_0" : 2
                    },
                    "indices" : 3,
                    "material" : 0
                },
                {
                    "attributes" : {
                        "POSITION" : 4,
                        "NORMAL" : 5,
                        "TEXCOORD_0" : 6
                    },
                    "indices" : 7,
                    "material" : 1
                }
            ]
        }
    ],
    "textures" : [
        {
            "source" : 0
        },
        {
            "source" : 1
        }
    ],
    "images" : [
        {
            "mimeType" : "image/jpeg",
            "name" : "airplane_body_diffuse_v1",
            "uri" : "airplane_body_diffuse_v1.jpg"
        },
        {
            "mimeType" : "image/jpeg",
            "name" : "airplane_wings_diffuse_v1",
            "uri" : "airplane_wings_diffuse_v1.jpg"
        }
    ],
    "accessors" : [
        {
            "bufferView" : 0,
            "componentType" : 5126,
            "count" : 42278,
            "max" : [
                319.1271057128906,
                499.906005859375,
                749.0983276367188
            ],
            "min" : [
                -322.0859069824219,
                29.211000442504883,
                -753.068115234375
            ],
            "type" : "VEC3"
        },
        {
            "bufferView" : 1,
            "componentType" : 5126,
            "count" : 42278,
            "type" : "VEC3"
        },
        {
            "bufferView" : 2,
            "componentType" : 5126,
            "count" : 42278,
            "type" : "VEC2"
        },
        {
            "bufferView" : 3,
            "componentType" : 5123,
            "count" : 177012,
            "type" : "SCALAR"
        },
        {
            "bufferView" : 4,
            "componentType" : 5126,
            "count" : 27460,
            "max" : [
                786.957275390625,
                242.61630249023438,
                400.31671142578125
            ],
            "min" : [
                -789.9151000976562,
                74.7311019897461,
                -165.9241943359375
            ],
            "type" : "VEC3"
        },
        {
            "bufferView" : 5,
            "componentType" : 5126,
            "count" : 27460,
            "type" : "VEC3"
        },
        {
            "bufferView" : 6,
            "componentType" : 5126,
            "count" : 27460,
            "type" : "VEC2"
        },
        {
            "bufferView" : 7,
            "componentType" : 5123,
            "count" : 113712,
            "type" : "SCALAR"
        }
    ],
    "bufferViews" : [
        {
            "buffer" : 0,
            "byteLength" : 507336,
            "byteOffset" : 0
        },
        {
            "buffer" : 0,
            "byteLength" : 507336,
            "byteOffset" : 507336
        },
        {
            "buffer" : 0,
            "byteLength" : 338224,
            "byteOffset" : 1014672
        },
        {
            "buffer" : 0,
            "byteLength" : 354024,
            "byteOffset" : 1352896
        },
        {
            "buffer" : 0,
            "byteLength" : 329520,
            "byteOffset" : 1706920
        },
        {
            "buffer" : 0,
            "byteLength" : 329520,
            "byteOffset" : 2036440
        },
        {
            "buffer" : 0,
            "byteLength" : 219680,
            "byteOffset" : 2365960
        },
        {
            "buffer" : 0,
            "byteLength" : 227424,
            "byteOffset" : 2585640
        }
    ],
    "buffers" : [
        {
            "byteLength" : 2813064,
            "uri" : "airplane.bin"
        }
    ]
}
