{
  "asset": {
    "generator": "glTF-Transform v0.9.9",
    "version": "2.0"
  },
  "accessors": [
    {
      "name": "data_1_1",
      "type": "VEC3",
      "componentType": 5126,
      "count": 2857,
      "max": [
        1.4269746541976929,
        3.7123496532440186,
        1.4685450792312622
      ],
      "min": [
        -1.4270046949386597,
        0.0006282699760049582,
        -1.468184232711792
      ],
      "normalized": false,
      "bufferView": 0,
      "byteOffset": 0
    },
    {
      "name": "data_1_2",
      "type": "SCALAR",
      "componentType": 5123,
      "count": 16443,
      "max": [
        2856
      ],
      "min": [
        0
      ],
      "normalized": false,
      "bufferView": 1,
      "byteOffset": 0
    }
  ],
  "bufferViews": [
    {
      "buffer": 0,
      "byteOffset": 0,
      "byteLength": 34284,
      "byteStride": 12,
      "target": 34962
    },
    {
      "buffer": 1,
      "byteOffset": 0,
      "byteLength": 32888,
      "target": 34963
    }
  ],
  "buffers": [
    {
      "name": "buffer_1_1",
      "uri": "apricot_1.bin",
      "byteLength": 34284
    },
    {
      "name": "buffer_1_2",
      "uri": "apricot_2.bin",
      "byteLength": 32888
    }
  ],
  "materials": [
    {
      "name": "material_1",
      "alphaMode": "OPAQUE",
      "doubleSided": true,
      "pbrMetallicRoughness": {
        "baseColorFactor": [
          0.7304607400847158,
          0.4232676699760063,
          0.036889450395083165,
          1
        ],
        "roughnessFactor": 0.7211133241653442,
        "metallicFactor": 0
      },
      "emissiveFactor": [
        0,
        0,
        0
      ]
    }
  ],
  "meshes": [
    {
      "name": "mesh",
      "primitives": [
        {
          "attributes": {
            "POSITION": 0
          },
          "mode": 4,
          "material": 0,
          "indices": 1
        }
      ]
    }
  ],
  "nodes": [
    {
      "name": "node",
      "mesh": 0
    }
  ],
  "scenes": [
    {
      "name": "scene",
      "nodes": [
        0
      ]
    }
  ]
}