{
  "asset": {
    "generator": "glTF-Transform v0.9.9",
    "version": "2.0"
  },
  "accessors": [
    {
      "name": "data_1_1",
      "type": "VEC3",
      "componentType": 5126,
      "count": 7723,
      "max": [
        1.4276180267333984,
        3.713210105895996,
        1.4681751728057861
      ],
      "min": [
        -1.4275097846984863,
        -0.0010838342132046819,
        -1.4665690660476685
      ],
      "normalized": false,
      "bufferView": 0,
      "byteOffset": 0
    },
    {
      "name": "data_1_2",
      "type": "SCALAR",
      "componentType": 5123,
      "count": 39885,
      "max": [
        7722
      ],
      "min": [
        0
      ],
      "normalized": false,
      "bufferView": 1,
      "byteOffset": 0
    }
  ],
  "bufferViews": [
    {
      "buffer": 0,
      "byteOffset": 0,
      "byteLength": 92676,
      "byteStride": 12,
      "target": 34962
    },
    {
      "buffer": 1,
      "byteOffset": 0,
      "byteLength": 79772,
      "target": 34963
    }
  ],
  "buffers": [
    {
      "name": "buffer_1_1",
      "uri": "apricot_1.bin",
      "byteLength": 92676
    },
    {
      "name": "buffer_1_2",
      "uri": "apricot_2.bin",
      "byteLength": 79772
    }
  ],
  "materials": [
    {
      "name": "material_1",
      "alphaMode": "OPAQUE",
      "doubleSided": true,
      "pbrMetallicRoughness": {
        "baseColorFactor": [
          0.8705882352941177,
          0.6823529411764706,
          0.21176470588235294,
          1
        ],
        "roughnessFactor": 0.7211133241653442,
        "metallicFactor": 0
      },
      "emissiveFactor": [
        0,
        0,
        0
      ]
    }
  ],
  "meshes": [
    {
      "name": "mesh",
      "primitives": [
        {
          "attributes": {
            "POSITION": 0
          },
          "mode": 4,
          "material": 0,
          "indices": 1
        }
      ]
    }
  ],
  "nodes": [
    {
      "name": "node",
      "mesh": 0
    }
  ],
  "scenes": [
    {
      "name": "scene",
      "nodes": [
        0
      ]
    }
  ]
}