{
  "asset": {
    "generator": "glTF-Transform v0.9.9",
    "version": "2.0"
  },
  "accessors": [
    {
      "name": "data_0_1",
      "type": "VEC3",
      "componentType": 5126,
      "count": 9276,
      "max": [
        1.4146748781204224,
        2.0417065620422363,
        5.623560905456543
      ],
      "min": [
        -1.414764404296875,
        -0.12643158435821533,
        -4.098057270050049
      ],
      "normalized": false,
      "bufferView": 0,
      "byteOffset": 0
    },
    {
      "name": "data_0_2",
      "type": "SCALAR",
      "componentType": 5123,
      "count": 38634,
      "max": [
        9275
      ],
      "min": [
        0
      ],
      "normalized": false,
      "bufferView": 1,
      "byteOffset": 0
    }
  ],
  "bufferViews": [
    {
      "buffer": 0,
      "byteOffset": 0,
      "byteLength": 111312,
      "byteStride": 12,
      "target": 34962
    },
    {
      "buffer": 1,
      "byteOffset": 0,
      "byteLength": 77268,
      "target": 34963
    }
  ],
  "buffers": [
    {
      "name": "buffer_0_1",
      "uri": "boat_1.bin",
      "byteLength": 111312
    },
    {
      "name": "buffer_0_2",
      "uri": "boat_2.bin",
      "byteLength": 77268
    }
  ],
  "meshes": [
    {
      "name": "mesh",
      "primitives": [
        {
          "attributes": {
            "POSITION": 0
          },
          "mode": 4,
          "indices": 1
        }
      ]
    }
  ],
  "nodes": [
    {
      "name": "node",
      "mesh": 0
    }
  ],
  "scenes": [
    {
      "name": "scene",
      "nodes": [
        0
      ]
    }
  ]
}