{
  "asset": {
    "generator": "glTF-Transform v0.9.9",
    "version": "2.0"
  },
  "accessors": [
    {
      "type": "VEC3",
      "componentType": 5126,
      "count": 37649,
      "max": [
        1.4594392776489258,
        2.2861814498901367,
        3.4257938861846924
      ],
      "min": [
        -1.4729706048965454,
        0.1320706456899643,
        -3.443948268890381
      ],
      "normalized": false,
      "bufferView": 0,
      "byteOffset": 0
    },
    {
      "type": "VEC3",
      "componentType": 5126,
      "count": 25409,
      "max": [
        3.598931074142456,
        1.1095384359359741,
        1.8307374715805054
      ],
      "min": [
        -3.6124579906463623,
        0.341761976480484,
        -0.7588083148002625
      ],
      "normalized": false,
      "bufferView": 1,
      "byteOffset": 0
    },
    {
      "type": "VEC3",
      "componentType": 5126,
      "count": 25409,
      "max": [
        0.9999999403953552,
        1,
        1
      ],
      "min": [
        -0.9999998807907104,
        -1,
        -1
      ],
      "normalized": false,
      "bufferView": 1,
      "byteOffset": 12
    },
    {
      "type": "VEC2",
      "componentType": 5126,
      "count": 25409,
      "max": [
        0.9959999918937683,
        0.995199978351593
      ],
      "min": [
        0.005799999926239252,
        0.004999995231628418
      ],
      "normalized": false,
      "bufferView": 1,
      "byteOffset": 24
    },
    {
      "type": "VEC3",
      "componentType": 5126,
      "count": 37649,
      "max": [
        1,
        1,
        1
      ],
      "min": [
        -1,
        -1,
        -1
      ],
      "normalized": false,
      "bufferView": 2,
      "byteOffset": 0
    },
    {
      "type": "VEC2",
      "componentType": 5126,
      "count": 37649,
      "max": [
        0.9955999851226807,
        0.9973999857902527
      ],
      "min": [
        0.0026000000070780516,
        0.007899999618530273
      ],
      "normalized": false,
      "bufferView": 2,
      "byteOffset": 451788
    },
    {
      "type": "SCALAR",
      "componentType": 5123,
      "count": 61236,
      "max": [
        37639
      ],
      "min": [
        8
      ],
      "normalized": false,
      "bufferView": 3,
      "byteOffset": 0
    },
    {
      "type": "SCALAR",
      "componentType": 5123,
      "count": 113712,
      "max": [
        25408
      ],
      "min": [
        0
      ],
      "normalized": false,
      "bufferView": 3,
      "byteOffset": 122472
    }
  ],
  "bufferViews": [
    {
      "buffer": 0,
      "byteOffset": 0,
      "byteLength": 451788,
      "byteStride": 12,
      "target": 34962
    },
    {
      "buffer": 0,
      "byteOffset": 451788,
      "byteLength": 813088,
      "byteStride": 32,
      "target": 34962
    },
    {
      "buffer": 0,
      "byteOffset": 1264876,
      "byteLength": 752980
    },
    {
      "buffer": 0,
      "byteOffset": 2017856,
      "byteLength": 349896,
      "target": 34963
    }
  ],
  "samplers": [
    {
      "wrapS": 10497,
      "wrapT": 10497
    }
  ],
  "textures": [
    {
      "source": 0,
      "sampler": 0
    },
    {
      "source": 1,
      "sampler": 0
    }
  ],
  "images": [
    {
      "name": "airplane_body_diffuse_v1",
      "mimeType": "image/jpeg",
      "uri": "airplane_body_diffuse_v1.jpg"
    },
    {
      "name": "airplane_wings_diffuse_v1",
      "mimeType": "image/jpeg",
      "uri": "airplane_wings_diffuse_v1.jpg"
    }
  ],
  "buffers": [
    {
      "uri": "airplane.bin",
      "byteLength": 2367752
    }
  ],
  "materials": [
    {
      "name": "airplane_body.001",
      "alphaMode": "OPAQUE",
      "doubleSided": true,
      "pbrMetallicRoughness": {
        "baseColorFactor": [
          1,
          1,
          1,
          1
        ],
        "roughnessFactor": 0.850928783416748,
        "metallicFactor": 0,
        "baseColorTexture": {
          "index": 0,
          "texCoord": 0
        }
      },
      "emissiveFactor": [
        0,
        0,
        0
      ]
    },
    {
      "name": "airplane_wings.001",
      "alphaMode": "OPAQUE",
      "doubleSided": true,
      "pbrMetallicRoughness": {
        "baseColorFactor": [
          1,
          1,
          1,
          1
        ],
        "roughnessFactor": 0.850928783416748,
        "metallicFactor": 0,
        "baseColorTexture": {
          "index": 1,
          "texCoord": 0
        }
      },
      "emissiveFactor": [
        0,
        0,
        0
      ]
    }
  ],
  "meshes": [
    {
      "name": "11805_airplane_v2_L2.001",
      "primitives": [
        {
          "attributes": {
            "POSITION": 0
          },
          "mode": 4,
          "material": 0,
          "indices": 6
        },
        {
          "attributes": {
            "POSITION": 1,
            "NORMAL": 2,
            "TEXCOORD_0": 3
          },
          "mode": 4,
          "material": 1,
          "indices": 7
        }
      ]
    }
  ],
  "nodes": [
    {
      "name": "Light",
      "translation": [
        4.076245307922363,
        5.903861999511719,
        -1.0054539442062378
      ],
      "rotation": [
        0.16907575726509094,
        0.7558803558349609,
        -0.27217137813568115,
        0.570947527885437
      ]
    },
    {
      "name": "Camera",
      "translation": [
        7.358891487121582,
        4.958309173583984,
        6.925790786743164
      ],
      "rotation": [
        0.483536034822464,
        0.33687159419059753,
        -0.20870360732078552,
        0.7804827094078064
      ]
    },
    {
      "name": "airplane",
      "rotation": [
        0.7071068286895752,
        0,
        0,
        0.7071067094802856
      ],
      "mesh": 0
    }
  ],
  "scenes": [
    {
      "name": "Scene",
      "nodes": [
        0,
        1,
        2
      ]
    }
  ]
}