{
  "asset": {
    "generator": "glTF-Transform v0.9.9",
    "version": "2.0"
  },
  "accessors": [
    {
      "name": "position - test",
      "type": "VEC3",
      "componentType": 5126,
      "count": 5287,
      "max": [
        23.73460578918457,
        30.45092010498047,
        29.007875442504883
      ],
      "min": [
        -23.720548629760742,
        -30.589841842651367,
        -29.005699157714844
      ],
      "normalized": false,
      "bufferView": 0,
      "byteOffset": 0
    },
    {
      "name": "normal - test",
      "type": "VEC3",
      "componentType": 5126,
      "count": 41864,
      "max": [
        0.9999380111694336,
        0.9999617338180542,
        0.9999343156814575
      ],
      "min": [
        -0.9999210238456726,
        -0.9999637007713318,
        -0.9998589754104614
      ],
      "normalized": false,
      "bufferView": 1,
      "byteOffset": 0
    },
    {
      "name": "color - test",
      "type": "VEC4",
      "componentType": 5126,
      "count": 41864,
      "max": [
        0.9914400577545166,
        0.9914400577545166,
        0.9914400577545166,
        1
      ],
      "min": [
        0,
        0,
        0,
        1
      ],
      "normalized": false,
      "bufferView": 1,
      "byteOffset": 502368
    },
    {
      "name": "indices - test",
      "type": "SCALAR",
      "componentType": 5123,
      "count": 28749,
      "max": [
        5286
      ],
      "min": [
        0
      ],
      "normalized": false,
      "bufferView": 2,
      "byteOffset": 0
    }
  ],
  "bufferViews": [
    {
      "buffer": 0,
      "byteOffset": 0,
      "byteLength": 63444,
      "byteStride": 12,
      "target": 34962
    },
    {
      "buffer": 0,
      "byteOffset": 63444,
      "byteLength": 1172192
    },
    {
      "buffer": 0,
      "byteOffset": 1235636,
      "byteLength": 57500,
      "target": 34963
    }
  ],
  "buffers": [
    {
      "uri": "skull.bin",
      "byteLength": 1293136
    }
  ],
  "materials": [
    {
      "name": "default material",
      "alphaMode": "OPAQUE",
      "doubleSided": false,
      "pbrMetallicRoughness": {
        "baseColorFactor": [
          0.5,
          0.5,
          0.5,
          1
        ],
        "roughnessFactor": 0.3288090062081349,
        "metallicFactor": 0
      },
      "emissiveFactor": [
        0,
        0,
        0
      ]
    }
  ],
  "meshes": [
    {
      "primitives": [
        {
          "attributes": {
            "POSITION": 0
          },
          "mode": 4,
          "material": 0,
          "indices": 3
        }
      ]
    }
  ],
  "nodes": [
    {
      "name": "test",
      "rotation": [
        0,
        1,
        0,
        0
      ],
      "scale": [
        0.1,
        0.1,
        0.1
      ],
      "mesh": 0
    }
  ],
  "scenes": [
    {
      "nodes": [
        0
      ]
    }
  ]
}