{
  "asset": {
    "generator": "glTF-Transform v0.9.9",
    "version": "2.0"
  },
  "accessors": [
    {
      "type": "VEC3",
      "componentType": 5126,
      "count": 21124,
      "max": [
        1.4146878719329834,
        2.187622308731079,
        5.622215270996094
      ],
      "min": [
        -1.4155735969543457,
        -0.12643325328826904,
        -4.338570594787598
      ],
      "normalized": false,
      "bufferView": 0,
      "byteOffset": 0
    },
    {
      "type": "VEC3",
      "componentType": 5126,
      "count": 101124,
      "max": [
        1.0000001192092896,
        1.0000001192092896,
        1.0000001192092896
      ],
      "min": [
        -1.0000001192092896,
        -1.0000001192092896,
        -1.0000001192092896
      ],
      "normalized": false,
      "bufferView": 1,
      "byteOffset": 0
    },
    {
      "type": "VEC2",
      "componentType": 5126,
      "count": 101124,
      "max": [
        49.812400817871094,
        6.732850074768066
      ],
      "min": [
        -25.094900131225586,
        -25
      ],
      "normalized": false,
      "bufferView": 1,
      "byteOffset": 1213488
    },
    {
      "type": "SCALAR",
      "componentType": 5123,
      "count": 95421,
      "max": [
        21123
      ],
      "min": [
        0
      ],
      "normalized": false,
      "bufferView": 2,
      "byteOffset": 0
    }
  ],
  "bufferViews": [
    {
      "buffer": 0,
      "byteOffset": 0,
      "byteLength": 253488,
      "byteStride": 12,
      "target": 34962
    },
    {
      "buffer": 0,
      "byteOffset": 253488,
      "byteLength": 2022480
    },
    {
      "buffer": 0,
      "byteOffset": 2275968,
      "byteLength": 190844,
      "target": 34963
    }
  ],
  "buffers": [
    {
      "uri": "boat.bin",
      "byteLength": 2466812
    }
  ],
  "materials": [
    {
      "name": "Shaded Wireframe",
      "alphaMode": "OPAQUE",
      "doubleSided": true,
      "pbrMetallicRoughness": {
        "baseColorFactor": [
          0.800000011920929,
          0.800000011920929,
          0.800000011920929,
          1
        ],
        "roughnessFactor": 0.5,
        "metallicFactor": 0
      },
      "emissiveFactor": [
        0,
        0,
        0
      ]
    }
  ],
  "meshes": [
    {
      "name": "Boat",
      "primitives": [
        {
          "attributes": {
            "POSITION": 0
          },
          "mode": 4,
          "material": 0,
          "indices": 3
        }
      ]
    }
  ],
  "nodes": [
    {
      "name": "Boat",
      "mesh": 0
    }
  ],
  "scenes": [
    {
      "name": "Scene",
      "nodes": [
        0
      ]
    }
  ]
}