{
  "asset": {
    "generator": "glTF-Transform v0.9.9",
    "version": "2.0"
  },
  "accessors": [
    {
      "name": "data_1_1",
      "type": "VEC3",
      "componentType": 5126,
      "count": 10027,
      "max": [
        69.50206756591797,
        57.407920837402344,
        107.81238555908203
      ],
      "min": [
        -69.63164520263672,
        -7.24283504486084,
        -105.49407958984375
      ],
      "normalized": false,
      "bufferView": 0,
      "byteOffset": 0
    },
    {
      "name": "data_1_2",
      "type": "SCALAR",
      "componentType": 5123,
      "count": 35091,
      "max": [
        10026
      ],
      "min": [
        0
      ],
      "normalized": false,
      "bufferView": 1,
      "byteOffset": 0
    },
    {
      "name": "data_2_1",
      "type": "VEC3",
      "componentType": 5126,
      "count": 760,
      "max": [
        28.464859008789062,
        47.56846618652344,
        13.927990913391113
      ],
      "min": [
        -28.4298152923584,
        -1.4353642463684082,
        -22.429845809936523
      ],
      "normalized": false,
      "bufferView": 2,
      "byteOffset": 0
    },
    {
      "name": "data_2_2",
      "type": "SCALAR",
      "componentType": 5123,
      "count": 4008,
      "max": [
        759
      ],
      "min": [
        0
      ],
      "normalized": false,
      "bufferView": 3,
      "byteOffset": 0
    }
  ],
  "bufferViews": [
    {
      "buffer": 0,
      "byteOffset": 0,
      "byteLength": 120324,
      "byteStride": 12,
      "target": 34962
    },
    {
      "buffer": 1,
      "byteOffset": 0,
      "byteLength": 70184,
      "target": 34963
    },
    {
      "buffer": 2,
      "byteOffset": 0,
      "byteLength": 9120,
      "byteStride": 12,
      "target": 34962
    },
    {
      "buffer": 3,
      "byteOffset": 0,
      "byteLength": 8016,
      "target": 34963
    }
  ],
  "buffers": [
    {
      "name": "buffer_1_1",
      "uri": "human_1.bin",
      "byteLength": 120324
    },
    {
      "name": "buffer_1_2",
      "uri": "human_2.bin",
      "byteLength": 70184
    },
    {
      "name": "buffer_2_1",
      "uri": "human_3.bin",
      "byteLength": 9120
    },
    {
      "name": "buffer_2_2",
      "uri": "human_4.bin",
      "byteLength": 8016
    }
  ],
  "materials": [
    {
      "name": "material_1",
      "alphaMode": "OPAQUE",
      "doubleSided": true,
      "pbrMetallicRoughness": {
        "baseColorFactor": [
          0.23839757380151394,
          0.11697066774917994,
          0.06480326668529614,
          0.9921568627450981
        ],
        "roughnessFactor": 0.6000000238418579,
        "metallicFactor": 0
      },
      "emissiveFactor": [
        0,
        0,
        0
      ]
    },
    {
      "name": "material_2",
      "alphaMode": "OPAQUE",
      "doubleSided": true,
      "pbrMetallicRoughness": {
        "baseColorFactor": [
          0,
          0,
          0,
          1
        ],
        "roughnessFactor": 0.8999999761581421,
        "metallicFactor": 0
      },
      "emissiveFactor": [
        0,
        0,
        0
      ]
    }
  ],
  "meshes": [
    {
      "name": "mesh",
      "primitives": [
        {
          "attributes": {
            "POSITION": 0
          },
          "mode": 4,
          "material": 0,
          "indices": 1
        },
        {
          "attributes": {
            "POSITION": 2
          },
          "mode": 4,
          "material": 1,
          "indices": 3
        }
      ]
    }
  ],
  "nodes": [
    {
      "name": "node",
      "rotation": [
        -0.7071068286895752,
        0,
        0,
        0.7071067094802856
      ],
      "mesh": 0
    }
  ],
  "scenes": [
    {
      "name": "scene",
      "nodes": [
        0
      ]
    }
  ]
}