{
  "asset": {
    "generator": "glTF-Transform v0.9.9",
    "version": "2.0"
  },
  "accessors": [
    {
      "type": "VEC3",
      "componentType": 5126,
      "count": 79089,
      "max": [
        8.66904354095459,
        1.319564700126648,
        6.214841365814209
      ],
      "min": [
        -8.66904354095459,
        -18.225360870361328,
        -0.7123635411262512
      ],
      "normalized": false,
      "bufferView": 0,
      "byteOffset": 0
    },
    {
      "type": "VEC3",
      "componentType": 5126,
      "count": 79089,
      "max": [
        0.9999919533729553,
        0.9997820854187012,
        0.9999984502792358
      ],
      "min": [
        -0.9999919533729553,
        -0.9998669624328613,
        -0.9999997615814209
      ],
      "normalized": false,
      "bufferView": 1,
      "byteOffset": 0
    },
    {
      "type": "VEC2",
      "componentType": 5126,
      "count": 79089,
      "max": [
        0.980883002281189,
        0.9514200091362
      ],
      "min": [
        0.022678999230265617,
        0.052069008350372314
      ],
      "normalized": false,
      "bufferView": 1,
      "byteOffset": 949068
    },
    {
      "type": "SCALAR",
      "componentType": 5123,
      "count": 61500,
      "max": [
        65523
      ],
      "min": [
        4
      ],
      "normalized": false,
      "bufferView": 2,
      "byteOffset": 0
    }
  ],
  "bufferViews": [
    {
      "buffer": 0,
      "byteOffset": 0,
      "byteLength": 949068,
      "byteStride": 12,
      "target": 34962
    },
    {
      "buffer": 0,
      "byteOffset": 949068,
      "byteLength": 1581780
    },
    {
      "buffer": 0,
      "byteOffset": 2530848,
      "byteLength": 123000,
      "target": 34963
    }
  ],
  "buffers": [
    {
      "uri": "dragon.bin",
      "byteLength": 2653848
    }
  ],
  "materials": [
    {
      "name": "(null).002",
      "alphaMode": "OPAQUE",
      "doubleSided": true,
      "pbrMetallicRoughness": {
        "baseColorFactor": [
          0.800000011920929,
          0.800000011920929,
          0.800000011920929,
          1
        ],
        "roughnessFactor": 0.5,
        "metallicFactor": 0
      },
      "emissiveFactor": [
        0,
        0,
        0
      ]
    }
  ],
  "meshes": [
    {
      "name": "Dragon.002",
      "primitives": [
        {
          "attributes": {
            "POSITION": 0
          },
          "mode": 4,
          "material": 0,
          "indices": 3
        }
      ]
    }
  ],
  "nodes": [
    {
      "name": "dragon",
      "rotation": [
        0.7071068286895752,
        0,
        0,
        0.7071067094802856
      ],
      "mesh": 0
    }
  ],
  "scenes": [
    {
      "name": "Scene",
      "nodes": [
        0
      ]
    }
  ]
}