{
  "asset": {
    "generator": "glTF-Transform v0.9.9",
    "version": "2.0"
  },
  "accessors": [
    {
      "name": "data_1_1",
      "type": "VEC3",
      "componentType": 5126,
      "count": 16401,
      "max": [
        1.211983323097229,
        1.5943231582641602,
        1.5319154262542725
      ],
      "min": [
        -1.078873872756958,
        -1.130190134048462,
        -1.2237417697906494
      ],
      "normalized": false,
      "bufferView": 0,
      "byteOffset": 0
    },
    {
      "name": "data_1_2",
      "type": "SCALAR",
      "componentType": 5123,
      "count": 59406,
      "max": [
        16400
      ],
      "min": [
        0
      ],
      "normalized": false,
      "bufferView": 1,
      "byteOffset": 0
    },
    {
      "name": "data_2_1",
      "type": "VEC3",
      "componentType": 5126,
      "count": 2841,
      "max": [
        0.9818137884140015,
        1.5943232774734497,
        0.9289404153823853
      ],
      "min": [
        -1.0130598545074463,
        -1.130190134048462,
        -1.2421809434890747
      ],
      "normalized": false,
      "bufferView": 2,
      "byteOffset": 0
    },
    {
      "name": "data_2_2",
      "type": "SCALAR",
      "componentType": 5123,
      "count": 2958,
      "max": [
        2840
      ],
      "min": [
        0
      ],
      "normalized": false,
      "bufferView": 3,
      "byteOffset": 0
    }
  ],
  "bufferViews": [
    {
      "buffer": 0,
      "byteOffset": 0,
      "byteLength": 196812,
      "byteStride": 12,
      "target": 34962
    },
    {
      "buffer": 1,
      "byteOffset": 0,
      "byteLength": 118812,
      "target": 34963
    },
    {
      "buffer": 2,
      "byteOffset": 0,
      "byteLength": 34092,
      "byteStride": 12,
      "target": 34962
    },
    {
      "buffer": 3,
      "byteOffset": 0,
      "byteLength": 5916,
      "target": 34963
    }
  ],
  "buffers": [
    {
      "name": "buffer_1_1",
      "uri": "head_1.bin",
      "byteLength": 196812
    },
    {
      "name": "buffer_1_2",
      "uri": "head_2.bin",
      "byteLength": 118812
    },
    {
      "name": "buffer_2_1",
      "uri": "head_3.bin",
      "byteLength": 34092
    },
    {
      "name": "buffer_2_2",
      "uri": "head_4.bin",
      "byteLength": 5916
    }
  ],
  "materials": [
    {
      "name": "material_1",
      "alphaMode": "OPAQUE",
      "doubleSided": true,
      "pbrMetallicRoughness": {
        "baseColorFactor": [
          0.20507873637973145,
          0.1844749944900301,
          0.16202937562896222,
          1
        ],
        "roughnessFactor": 1,
        "metallicFactor": 1
      },
      "emissiveFactor": [
        0,
        0,
        0
      ]
    },
    {
      "name": "material_2",
      "alphaMode": "OPAQUE",
      "doubleSided": true,
      "pbrMetallicRoughness": {
        "baseColorFactor": [
          0.20863687013464577,
          0.19806931954941637,
          0.17788841597328695,
          1
        ],
        "roughnessFactor": 1,
        "metallicFactor": 1
      },
      "emissiveFactor": [
        0,
        0,
        0
      ]
    }
  ],
  "meshes": [
    {
      "name": "mesh",
      "primitives": [
        {
          "attributes": {
            "POSITION": 0
          },
          "mode": 4,
          "material": 0,
          "indices": 1
        },
        {
          "attributes": {
            "POSITION": 2
          },
          "mode": 4,
          "material": 1,
          "indices": 3
        }
      ]
    }
  ],
  "nodes": [
    {
      "name": "node",
      "mesh": 0
    }
  ],
  "scenes": [
    {
      "name": "scene",
      "nodes": [
        0
      ]
    }
  ]
}