{
  "asset": {
    "generator": "glTF-Transform v0.9.9",
    "version": "2.0"
  },
  "accessors": [
    {
      "name": "data_1_1",
      "type": "VEC3",
      "componentType": 5126,
      "count": 6223,
      "max": [
        1.2123290300369263,
        1.5943231582641602,
        1.5436934232711792
      ],
      "min": [
        -1.099229097366333,
        -1.130190134048462,
        -1.2152198553085327
      ],
      "normalized": false,
      "bufferView": 0,
      "byteOffset": 0
    },
    {
      "name": "data_1_2",
      "type": "SCALAR",
      "componentType": 5123,
      "count": 7191,
      "max": [
        6222
      ],
      "min": [
        0
      ],
      "normalized": false,
      "bufferView": 1,
      "byteOffset": 0
    },
    {
      "name": "data_2_1",
      "type": "VEC3",
      "componentType": 5126,
      "count": 1068,
      "max": [
        0.9818137884140015,
        1.5943231582641602,
        0.9183778166770935
      ],
      "min": [
        -0.9816673994064331,
        -1.130190134048462,
        -1.1927547454833984
      ],
      "normalized": false,
      "bufferView": 2,
      "byteOffset": 0
    },
    {
      "name": "data_2_2",
      "type": "SCALAR",
      "componentType": 5123,
      "count": 1113,
      "max": [
        1067
      ],
      "min": [
        0
      ],
      "normalized": false,
      "bufferView": 3,
      "byteOffset": 0
    }
  ],
  "bufferViews": [
    {
      "buffer": 0,
      "byteOffset": 0,
      "byteLength": 74676,
      "byteStride": 12,
      "target": 34962
    },
    {
      "buffer": 1,
      "byteOffset": 0,
      "byteLength": 14384,
      "target": 34963
    },
    {
      "buffer": 2,
      "byteOffset": 0,
      "byteLength": 12816,
      "byteStride": 12,
      "target": 34962
    },
    {
      "buffer": 3,
      "byteOffset": 0,
      "byteLength": 2228,
      "target": 34963
    }
  ],
  "buffers": [
    {
      "name": "buffer_1_1",
      "uri": "head_1.bin",
      "byteLength": 74676
    },
    {
      "name": "buffer_1_2",
      "uri": "head_2.bin",
      "byteLength": 14384
    },
    {
      "name": "buffer_2_1",
      "uri": "head_3.bin",
      "byteLength": 12816
    },
    {
      "name": "buffer_2_2",
      "uri": "head_4.bin",
      "byteLength": 2228
    }
  ],
  "materials": [
    {
      "name": "material_1",
      "alphaMode": "OPAQUE",
      "doubleSided": true,
      "pbrMetallicRoughness": {
        "baseColorFactor": [
          0.20507873637973145,
          0.1844749944900301,
          0.16202937562896222,
          1
        ],
        "roughnessFactor": 1,
        "metallicFactor": 1
      },
      "emissiveFactor": [
        0,
        0,
        0
      ]
    },
    {
      "name": "material_2",
      "alphaMode": "OPAQUE",
      "doubleSided": true,
      "pbrMetallicRoughness": {
        "baseColorFactor": [
          0.20863687013464577,
          0.19806931954941637,
          0.17788841597328695,
          1
        ],
        "roughnessFactor": 1,
        "metallicFactor": 1
      },
      "emissiveFactor": [
        0,
        0,
        0
      ]
    }
  ],
  "meshes": [
    {
      "name": "mesh",
      "primitives": [
        {
          "attributes": {
            "POSITION": 0
          },
          "mode": 4,
          "material": 0,
          "indices": 1
        },
        {
          "attributes": {
            "POSITION": 2
          },
          "mode": 4,
          "material": 1,
          "indices": 3
        }
      ]
    }
  ],
  "nodes": [
    {
      "name": "node",
      "mesh": 0
    }
  ],
  "scenes": [
    {
      "name": "scene",
      "nodes": [
        0
      ]
    }
  ]
}