{
  "asset": {
    "generator": "glTF-Transform v0.9.9",
    "version": "2.0"
  },
  "accessors": [
    {
      "type": "SCALAR",
      "componentType": 5123,
      "count": 807,
      "max": [
        2392
      ],
      "min": [
        6
      ],
      "normalized": false,
      "bufferView": 0,
      "byteOffset": 0
    },
    {
      "type": "VEC3",
      "componentType": 5126,
      "count": 2399,
      "max": [
        0.9995989799499512,
        0.999580979347229,
        0.9984359741210938
      ],
      "min": [
        -0.9990839958190918,
        -1,
        -0.9998319745063782
      ],
      "normalized": false,
      "bufferView": 1,
      "byteOffset": 0
    },
    {
      "type": "VEC2",
      "componentType": 5126,
      "count": 2399,
      "max": [
        0.9833459854125977,
        0.9800369739532471
      ],
      "min": [
        0.026409000158309937,
        0.01996302604675293
      ],
      "normalized": false,
      "bufferView": 1,
      "byteOffset": 28788
    },
    {
      "type": "VEC3",
      "componentType": 5126,
      "count": 2399,
      "max": [
        96.8741455078125,
        165.2351837158203,
        53.990997314453125
      ],
      "min": [
        -69.07820129394531,
        9.936039924621582,
        -61.47316360473633
      ],
      "normalized": false,
      "bufferView": 2,
      "byteOffset": 0
    }
  ],
  "bufferViews": [
    {
      "buffer": 0,
      "byteOffset": 0,
      "byteLength": 1616,
      "target": 34963
    },
    {
      "buffer": 0,
      "byteOffset": 1616,
      "byteLength": 47980
    },
    {
      "buffer": 0,
      "byteOffset": 49596,
      "byteLength": 28788,
      "byteStride": 12,
      "target": 34962
    }
  ],
  "samplers": [
    {
      "magFilter": 9729,
      "minFilter": 9986,
      "wrapS": 10497,
      "wrapT": 10497
    }
  ],
  "textures": [
    {
      "source": 0,
      "sampler": 0
    }
  ],
  "images": [
    {
      "mimeType": "image/png",
      "uri": "duckCM.png"
    }
  ],
  "buffers": [
    {
      "uri": "duck.bin",
      "byteLength": 78384
    }
  ],
  "materials": [
    {
      "name": "blinn3-fx",
      "alphaMode": "OPAQUE",
      "doubleSided": false,
      "pbrMetallicRoughness": {
        "baseColorFactor": [
          1,
          1,
          1,
          1
        ],
        "roughnessFactor": 1,
        "metallicFactor": 0,
        "baseColorTexture": {
          "index": 0,
          "texCoord": 0
        }
      },
      "emissiveFactor": [
        0,
        0,
        0
      ]
    }
  ],
  "meshes": [
    {
      "name": "LOD3spShape",
      "primitives": [
        {
          "attributes": {
            "POSITION": 3
          },
          "mode": 4,
          "material": 0,
          "indices": 0
        }
      ]
    }
  ],
  "cameras": [
    {
      "type": "perspective",
      "perspective": {
        "znear": 1,
        "zfar": 10000,
        "yfov": 0.6605925559997559,
        "aspectRatio": 1.5
      }
    }
  ],
  "nodes": [
    {
      "scale": [
        0.009999999776482582,
        0.009999999776482582,
        0.009999999776482582
      ],
      "children": [
        2,
        1
      ]
    },
    {
      "translation": [
        400.1130065917969,
        463.2640075683594,
        -431.0780334472656
      ],
      "rotation": [
        -0.12106388300148069,
        0.8780589498760827,
        0.30577249018066477,
        0.34764810052439704
      ],
      "camera": 0
    },
    {
      "mesh": 0
    }
  ],
  "scenes": [
    {
      "nodes": [
        0
      ]
    }
  ]
}