{
  "asset": {
    "generator": "Khronos glTF Blender I/O v1.2.75",
    "version": "2.0"
  },
  "scene": 0,
  "scenes": [
    {
      "name": "Scene",
      "nodes": [2, 3, 4]
    }
  ],
  "nodes": [
    {
      "mesh": 0,
      "name": "Shoe"
    },
    {
      "children": [0],
      "name": "g_Shoe"
    },
    {
      "children": [1],
      "name": "Shoeobj",
      "scale": [0.14893949031829834, 0.14893949031829834, 0.14893949031829834],
      "translation": [
        0.001610487699508667,
        0.07590250670909882,
        0.004850998520851135
      ]
    },
    {
      "name": "Light",
      "rotation": [
        0.16907575726509094,
        0.7558803558349609,
        -0.27217137813568115,
        0.570947527885437
      ],
      "translation": [4.076245307922363, 5.903861999511719, -1.0054539442062378]
    },
    {
      "name": "Camera",
      "rotation": [
        0.483536034822464,
        0.33687159419059753,
        -0.20870360732078552,
        0.7804827094078064
      ],
      "translation": [7.358891487121582, 4.958309173583984, 6.925790786743164]
    }
  ],
  "materials": [
    {
      "emissiveFactor": [0, 0, 0],
      "name": "phong1SG",
      "normalTexture": {
        "index": 0,
        "texCoord": 0
      },
      "occlusionTexture": {
        "index": 1,
        "texCoord": 0
      },
      "pbrMetallicRoughness": {
        "baseColorTexture": {
          "index": 2,
          "texCoord": 0
        },
        "metallicRoughnessTexture": {
          "index": 1,
          "texCoord": 0
        }
      }
    }
  ],
  "meshes": [
    {
      "name": "shoe",
      "primitives": [
        {
          "attributes": {
            "POSITION": 0,
            "NORMAL": 1,
            "TEXCOORD_0": 2
          },
          "indices": 3,
          "material": 0
        }
      ]
    }
  ],
  "textures": [
    {
      "source": 0
    },
    {
      "source": 1
    },
    {
      "source": 2
    }
  ],
  "images": [
    {
      "mimeType": "image/jpeg",
      "name": "normal",
      "uri": "normal.jpg"
    },
    {
      "mimeType": "image/jpeg",
      "name": "occlusionRougnessMetalness",
      "uri": "occlusionRougnessMetalness.jpg"
    },
    {
      "mimeType": "image/jpeg",
      "name": "diffuseMidnight",
      "uri": "diffuseMidnight.jpg"
    }
  ],
  "accessors": [
    {
      "bufferView": 0,
      "componentType": 5126,
      "count": 539,
      "max": [1.0063042640686035, 0.5095146894454956, 0.3970268666744232],
      "min": [-0.9918543696403503, -0.5232905149459839, -0.3975837230682373],
      "type": "VEC3"
    },
    {
      "bufferView": 1,
      "componentType": 5126,
      "count": 539,
      "type": "VEC3"
    },
    {
      "bufferView": 2,
      "componentType": 5126,
      "count": 539,
      "type": "VEC2"
    },
    {
      "bufferView": 3,
      "componentType": 5123,
      "count": 1362,
      "type": "SCALAR"
    }
  ],
  "bufferViews": [
    {
      "buffer": 0,
      "byteLength": 6468,
      "byteOffset": 0
    },
    {
      "buffer": 0,
      "byteLength": 6468,
      "byteOffset": 6468
    },
    {
      "buffer": 0,
      "byteLength": 4312,
      "byteOffset": 12936
    },
    {
      "buffer": 0,
      "byteLength": 2724,
      "byteOffset": 17248
    }
  ],
  "buffers": [
    {
      "byteLength": 19972,
      "uri": "Shoe-LOD1.bin"
    }
  ]
}
