{
  "asset": {
    "generator": "glTF-Transform v0.9.9",
    "version": "2.0"
  },
  "accessors": [
    {
      "name": "data_0_1",
      "type": "VEC3",
      "componentType": 5126,
      "count": 6726,
      "max": [
        8.60299301147461,
        1.3194634914398193,
        6.209813594818115
      ],
      "min": [
        -8.60299301147461,
        -18.225360870361328,
        -0.7034703493118286
      ],
      "normalized": false,
      "bufferView": 0,
      "byteOffset": 0
    },
    {
      "name": "data_0_2",
      "type": "SCALAR",
      "componentType": 5123,
      "count": 28200,
      "max": [
        6725
      ],
      "min": [
        0
      ],
      "normalized": false,
      "bufferView": 1,
      "byteOffset": 0
    }
  ],
  "bufferViews": [
    {
      "buffer": 0,
      "byteOffset": 0,
      "byteLength": 80712,
      "byteStride": 12,
      "target": 34962
    },
    {
      "buffer": 1,
      "byteOffset": 0,
      "byteLength": 56400,
      "target": 34963
    }
  ],
  "buffers": [
    {
      "name": "buffer_0_1",
      "uri": "dragon_1.bin",
      "byteLength": 80712
    },
    {
      "name": "buffer_0_2",
      "uri": "dragon_2.bin",
      "byteLength": 56400
    }
  ],
  "meshes": [
    {
      "name": "mesh",
      "primitives": [
        {
          "attributes": {
            "POSITION": 0
          },
          "mode": 4,
          "indices": 1
        }
      ]
    }
  ],
  "nodes": [
    {
      "name": "node",
      "rotation": [
        0.7071068286895752,
        0,
        0,
        0.7071067094802856
      ],
      "mesh": 0
    }
  ],
  "scenes": [
    {
      "name": "scene",
      "nodes": [
        0
      ]
    }
  ]
}