{
    "asset" : {
        "generator" : "Khronos glTF Blender I/O v1.2.75",
        "version" : "2.0"
    },
    "scene" : 0,
    "scenes" : [
        {
            "name" : "Scene",
            "nodes" : [
                0
            ]
        }
    ],
    "nodes" : [
        {
            "mesh" : 0,
            "name" : "Mesh_0"
        }
    ],
    "materials" : [
        {
            "doubleSided" : true,
            "emissiveFactor" : [
                0,
                0,
                0
            ],
            "name" : "Texture_0.001",
            "occlusionTexture" : {
                "index" : 0,
                "texCoord" : 0
            },
            "pbrMetallicRoughness" : {
                "baseColorTexture" : {
                    "index" : 1,
                    "texCoord" : 0
                },
                "metallicRoughnessTexture" : {
                    "index" : 0,
                    "texCoord" : 0
                }
            }
        },
        {
            "doubleSided" : true,
            "emissiveFactor" : [
                0,
                0,
                0
            ],
            "name" : "Texture_1.001",
            "occlusionTexture" : {
                "index" : 2,
                "texCoord" : 0
            },
            "pbrMetallicRoughness" : {
                "baseColorTexture" : {
                    "index" : 3,
                    "texCoord" : 0
                },
                "metallicRoughnessTexture" : {
                    "index" : 2,
                    "texCoord" : 0
                }
            }
        }
    ],
    "meshes" : [
        {
            "name" : "Mesh_0.001",
            "primitives" : [
                {
                    "attributes" : {
                        "POSITION" : 0,
                        "NORMAL" : 1,
                        "TEXCOORD_0" : 2
                    },
                    "indices" : 3,
                    "material" : 0
                },
                {
                    "attributes" : {
                        "POSITION" : 4,
                        "NORMAL" : 5,
                        "TEXCOORD_0" : 6
                    },
                    "indices" : 7,
                    "material" : 1
                }
            ]
        }
    ],
    "textures" : [
        {
            "source" : 0
        },
        {
            "source" : 1
        },
        {
            "source" : 2
        },
        {
            "source" : 3
        }
    ],
    "images" : [
        {
            "mimeType" : "image/png",
            "name" : "Texture_0_metallicRoughness",
            "uri" : "Texture_0_metallicRoughness.png"
        },
        {
            "mimeType" : "image/jpeg",
            "name" : "Texture_0_baseColor",
            "uri" : "Texture_0_baseColor.jpg"
        },
        {
            "mimeType" : "image/png",
            "name" : "Texture_1_metallicRoughness",
            "uri" : "Texture_1_metallicRoughness.png"
        },
        {
            "mimeType" : "image/jpeg",
            "name" : "Texture_1_baseColor",
            "uri" : "Texture_1_baseColor.jpg"
        }
    ],
    "accessors" : [
        {
            "bufferView" : 0,
            "componentType" : 5126,
            "count" : 30819,
            "max" : [
                1.2130013704299927,
                1.5943231582641602,
                1.5322413444519043
            ],
            "min" : [
                -1.0786449909210205,
                -1.130190134048462,
                -1.2253291606903076
            ],
            "type" : "VEC3"
        },
        {
            "bufferView" : 1,
            "componentType" : 5126,
            "count" : 30819,
            "type" : "VEC3"
        },
        {
            "bufferView" : 2,
            "componentType" : 5126,
            "count" : 30819,
            "type" : "VEC2"
        },
        {
            "bufferView" : 3,
            "componentType" : 5123,
            "count" : 114639,
            "type" : "SCALAR"
        },
        {
            "bufferView" : 4,
            "componentType" : 5126,
            "count" : 7255,
            "max" : [
                0.9818137884140015,
                1.5943231582641602,
                0.9289403557777405
            ],
            "min" : [
                -1.031964898109436,
                -1.130190134048462,
                -1.240966796875
            ],
            "type" : "VEC3"
        },
        {
            "bufferView" : 5,
            "componentType" : 5126,
            "count" : 7255,
            "type" : "VEC3"
        },
        {
            "bufferView" : 6,
            "componentType" : 5126,
            "count" : 7255,
            "type" : "VEC2"
        },
        {
            "bufferView" : 7,
            "componentType" : 5123,
            "count" : 10233,
            "type" : "SCALAR"
        }
    ],
    "bufferViews" : [
        {
            "buffer" : 0,
            "byteLength" : 369828,
            "byteOffset" : 0
        },
        {
            "buffer" : 0,
            "byteLength" : 369828,
            "byteOffset" : 369828
        },
        {
            "buffer" : 0,
            "byteLength" : 246552,
            "byteOffset" : 739656
        },
        {
            "buffer" : 0,
            "byteLength" : 229278,
            "byteOffset" : 986208
        },
        {
            "buffer" : 0,
            "byteLength" : 87060,
            "byteOffset" : 1215488
        },
        {
            "buffer" : 0,
            "byteLength" : 87060,
            "byteOffset" : 1302548
        },
        {
            "buffer" : 0,
            "byteLength" : 58040,
            "byteOffset" : 1389608
        },
        {
            "buffer" : 0,
            "byteLength" : 20466,
            "byteOffset" : 1447648
        }
    ],
    "buffers" : [
        {
            "byteLength" : 1468116,
            "uri" : "head.bin"
        }
    ]
}
