{
  "asset": {
    "generator": "glTF-Transform v0.9.9",
    "version": "2.0"
  },
  "accessors": [
    {
      "name": "data_1_1",
      "type": "VEC3",
      "componentType": 5126,
      "count": 15467,
      "max": [
        318.77410888671875,
        498.9609069824219,
        749.0985717773438
      ],
      "min": [
        -320.94195556640625,
        28.933141708374023,
        -750.3783569335938
      ],
      "normalized": false,
      "bufferView": 0,
      "byteOffset": 0
    },
    {
      "name": "data_1_2",
      "type": "SCALAR",
      "componentType": 5123,
      "count": 64443,
      "max": [
        15466
      ],
      "min": [
        0
      ],
      "normalized": false,
      "bufferView": 1,
      "byteOffset": 0
    },
    {
      "name": "data_2_1",
      "type": "VEC3",
      "componentType": 5126,
      "count": 4693,
      "max": [
        787.0359497070312,
        264.1466979980469,
        402.7645263671875
      ],
      "min": [
        -789.7219848632812,
        74.78697204589844,
        -166.045654296875
      ],
      "normalized": false,
      "bufferView": 2,
      "byteOffset": 0
    },
    {
      "name": "data_2_2",
      "type": "SCALAR",
      "componentType": 5123,
      "count": 16491,
      "max": [
        4692
      ],
      "min": [
        0
      ],
      "normalized": false,
      "bufferView": 3,
      "byteOffset": 0
    }
  ],
  "bufferViews": [
    {
      "buffer": 0,
      "byteOffset": 0,
      "byteLength": 185604,
      "byteStride": 12,
      "target": 34962
    },
    {
      "buffer": 1,
      "byteOffset": 0,
      "byteLength": 128888,
      "target": 34963
    },
    {
      "buffer": 2,
      "byteOffset": 0,
      "byteLength": 56316,
      "byteStride": 12,
      "target": 34962
    },
    {
      "buffer": 3,
      "byteOffset": 0,
      "byteLength": 32984,
      "target": 34963
    }
  ],
  "buffers": [
    {
      "name": "buffer_1_1",
      "uri": "airplane_1.bin",
      "byteLength": 185604
    },
    {
      "name": "buffer_1_2",
      "uri": "airplane_2.bin",
      "byteLength": 128888
    },
    {
      "name": "buffer_2_1",
      "uri": "airplane_3.bin",
      "byteLength": 56316
    },
    {
      "name": "buffer_2_2",
      "uri": "airplane_4.bin",
      "byteLength": 32984
    }
  ],
  "materials": [
    {
      "name": "material_1",
      "alphaMode": "OPAQUE",
      "doubleSided": true,
      "pbrMetallicRoughness": {
        "baseColorFactor": [
          0.6375968739867731,
          0.6795424696265424,
          0.7304607400847158,
          1
        ],
        "roughnessFactor": 0.850928783416748,
        "metallicFactor": 0
      },
      "emissiveFactor": [
        0,
        0,
        0
      ]
    },
    {
      "name": "material_2",
      "alphaMode": "OPAQUE",
      "doubleSided": true,
      "pbrMetallicRoughness": {
        "baseColorFactor": [
          0.6104955708001716,
          0.6444796819634361,
          0.6938717612856897,
          1
        ],
        "roughnessFactor": 0.850928783416748,
        "metallicFactor": 0
      },
      "emissiveFactor": [
        0,
        0,
        0
      ]
    }
  ],
  "meshes": [
    {
      "name": "mesh",
      "primitives": [
        {
          "attributes": {
            "POSITION": 0
          },
          "mode": 4,
          "material": 0,
          "indices": 1
        },
        {
          "attributes": {
            "POSITION": 2
          },
          "mode": 4,
          "material": 1,
          "indices": 3
        }
      ]
    }
  ],
  "nodes": [
    {
      "name": "node",
      "rotation": [
        0.7071068286895752,
        0,
        0,
        0.7071067094802856
      ],
      "scale": [
        0.004999999888241291,
        0.004999999888241291,
        0.004999999888241291
      ],
      "mesh": 0
    }
  ],
  "scenes": [
    {
      "name": "scene",
      "nodes": [
        0
      ]
    }
  ]
}