{
  "asset": {
    "generator": "Khronos glTF Blender I/O v1.2.75",
    "version": "2.0"
  },
  "scene": 0,
  "scenes": [
    {
      "name": "Scene",
      "nodes": [0, 1, 2]
    }
  ],
  "nodes": [
    {
      "name": "Light",
      "rotation": [
        0.16907575726509094,
        0.7558803558349609,
        -0.27217137813568115,
        0.570947527885437
      ],
      "translation": [4.076245307922363, 5.903861999511719, -1.0054539442062378]
    },
    {
      "name": "Camera",
      "rotation": [
        0.483536034822464,
        0.33687159419059753,
        -0.20870360732078552,
        0.7804827094078064
      ],
      "translation": [7.358891487121582, 4.958309173583984, 6.925790786743164]
    },
    {
      "mesh": 0,
      "name": "11805_airplane_v2_L2",
      "rotation": [0.7071068286895752, 0, 0, 0.7071067094802856]
    }
  ],
  "materials": [
    {
      "doubleSided": true,
      "emissiveFactor": [0, 0, 0],
      "name": "airplane_body",
      "pbrMetallicRoughness": {
        "baseColorTexture": {
          "index": 0,
          "texCoord": 0
        },
        "metallicFactor": 0,
        "roughnessFactor": 0.850928783416748
      }
    },
    {
      "doubleSided": true,
      "emissiveFactor": [0, 0, 0],
      "name": "airplane_wings",
      "pbrMetallicRoughness": {
        "baseColorTexture": {
          "index": 1,
          "texCoord": 0
        },
        "metallicFactor": 0,
        "roughnessFactor": 0.850928783416748
      }
    }
  ],
  "meshes": [
    {
      "name": "11805_airplane_v2_L2",
      "primitives": [
        {
          "attributes": {
            "POSITION": 0,
            "NORMAL": 1,
            "TEXCOORD_0": 2
          },
          "indices": 3,
          "material": 0
        },
        {
          "attributes": {
            "POSITION": 4,
            "NORMAL": 5,
            "TEXCOORD_0": 6
          },
          "indices": 7,
          "material": 1
        }
      ]
    }
  ],
  "textures": [
    {
      "source": 0
    },
    {
      "source": 1
    }
  ],
  "images": [
    {
      "mimeType": "image/jpeg",
      "name": "airplane_body_diffuse_v1",
      "uri": "airplane_body_diffuse_v1.jpg"
    },
    {
      "mimeType": "image/jpeg",
      "name": "airplane_wings_diffuse_v1",
      "uri": "airplane_wings_diffuse_v1.jpg"
    }
  ],
  "accessors": [
    {
      "bufferView": 0,
      "componentType": 5126,
      "count": 37652,
      "max": [319.1271057128906, 499.906005859375, 749.0983276367188],
      "min": [-322.0859069824219, 29.211000442504883, -753.068115234375],
      "type": "VEC3"
    },
    {
      "bufferView": 1,
      "componentType": 5126,
      "count": 37652,
      "type": "VEC3"
    },
    {
      "bufferView": 2,
      "componentType": 5126,
      "count": 37652,
      "type": "VEC2"
    },
    {
      "bufferView": 3,
      "componentType": 5123,
      "count": 177012,
      "type": "SCALAR"
    },
    {
      "bufferView": 4,
      "componentType": 5126,
      "count": 25409,
      "max": [786.957275390625, 242.61630249023438, 400.31671142578125],
      "min": [-789.9151000976562, 74.7311019897461, -165.9241943359375],
      "type": "VEC3"
    },
    {
      "bufferView": 5,
      "componentType": 5126,
      "count": 25409,
      "type": "VEC3"
    },
    {
      "bufferView": 6,
      "componentType": 5126,
      "count": 25409,
      "type": "VEC2"
    },
    {
      "bufferView": 7,
      "componentType": 5123,
      "count": 113712,
      "type": "SCALAR"
    }
  ],
  "bufferViews": [
    {
      "buffer": 0,
      "byteLength": 451824,
      "byteOffset": 0
    },
    {
      "buffer": 0,
      "byteLength": 451824,
      "byteOffset": 451824
    },
    {
      "buffer": 0,
      "byteLength": 301216,
      "byteOffset": 903648
    },
    {
      "buffer": 0,
      "byteLength": 354024,
      "byteOffset": 1204864
    },
    {
      "buffer": 0,
      "byteLength": 304908,
      "byteOffset": 1558888
    },
    {
      "buffer": 0,
      "byteLength": 304908,
      "byteOffset": 1863796
    },
    {
      "buffer": 0,
      "byteLength": 203272,
      "byteOffset": 2168704
    },
    {
      "buffer": 0,
      "byteLength": 227424,
      "byteOffset": 2371976
    }
  ],
  "buffers": [
    {
      "byteLength": 2599400,
      "uri": "Airplane.bin"
    }
  ]
}
