{
    "asset" : {
        "generator" : "Khronos glTF Blender I/O v1.2.75",
        "version" : "2.0"
    },
    "scene" : 0,
    "scenes" : [
        {
            "name" : "Scene",
            "nodes" : [
                0
            ]
        }
    ],
    "nodes" : [
        {
            "mesh" : 0,
            "name" : "Franks.C352.SC130k.DC32270k.M2064k_0"
        }
    ],
    "materials" : [
        {
            "doubleSided" : true,
            "emissiveFactor" : [
                0,
                0,
                0
            ],
            "name" : "Franks.C352.SC130k.DC32270k.M2064k.001",
            "pbrMetallicRoughness" : {
                "baseColorTexture" : {
                    "index" : 0,
                    "texCoord" : 0
                },
                "metallicFactor" : 0,
                "roughnessFactor" : 0.6000000238418579
            }
        }
    ],
    "meshes" : [
        {
            "name" : "Franks.C352.SC130k.DC32270k.M2064k_0.001",
            "primitives" : [
                {
                    "attributes" : {
                        "POSITION" : 0,
                        "NORMAL" : 1,
                        "TEXCOORD_0" : 2
                    },
                    "indices" : 3,
                    "material" : 0
                }
            ]
        }
    ],
    "textures" : [
        {
            "source" : 0
        }
    ],
    "images" : [
        {
            "mimeType" : "image/jpeg",
            "name" : "Franks_C352_SC130k_DC32270k_M2064k_baseColor",
            "uri" : "Franks_C352_SC130k_DC32270k_M2064k_baseColor.jpg"
        }
    ],
    "accessors" : [
        {
            "bufferView" : 0,
            "componentType" : 5126,
            "count" : 32272,
            "max" : [
                55.93586349487305,
                68.48361206054688,
                68.52706909179688
            ],
            "min" : [
                -55.61679458618164,
                -41.646915435791016,
                -59.54570770263672
            ],
            "type" : "VEC3"
        },
        {
            "bufferView" : 1,
            "componentType" : 5126,
            "count" : 32272,
            "type" : "VEC3"
        },
        {
            "bufferView" : 2,
            "componentType" : 5126,
            "count" : 32272,
            "type" : "VEC2"
        },
        {
            "bufferView" : 3,
            "componentType" : 5123,
            "count" : 149994,
            "type" : "SCALAR"
        }
    ],
    "bufferViews" : [
        {
            "buffer" : 0,
            "byteLength" : 387264,
            "byteOffset" : 0
        },
        {
            "buffer" : 0,
            "byteLength" : 387264,
            "byteOffset" : 387264
        },
        {
            "buffer" : 0,
            "byteLength" : 258176,
            "byteOffset" : 774528
        },
        {
            "buffer" : 0,
            "byteLength" : 299988,
            "byteOffset" : 1032704
        }
    ],
    "buffers" : [
        {
            "byteLength" : 1332692,
            "uri" : "frank.bin"
        }
    ]
}
