{
  "asset": {
    "generator": "glTF-Transform v0.9.9",
    "version": "2.0"
  },
  "accessors": [
    {
      "name": "data_1_1",
      "type": "VEC3",
      "componentType": 5126,
      "count": 179,
      "max": [
        96.0539779663086,
        164.436279296875,
        53.036685943603516
      ],
      "min": [
        -69.29850006103516,
        10.012605667114258,
        -61.377262115478516
      ],
      "normalized": false,
      "bufferView": 0,
      "byteOffset": 0
    },
    {
      "name": "data_1_2",
      "type": "SCALAR",
      "componentType": 5123,
      "count": 816,
      "max": [
        178
      ],
      "min": [
        0
      ],
      "normalized": false,
      "bufferView": 1,
      "byteOffset": 0
    }
  ],
  "bufferViews": [
    {
      "buffer": 0,
      "byteOffset": 0,
      "byteLength": 2148,
      "byteStride": 12,
      "target": 34962
    },
    {
      "buffer": 1,
      "byteOffset": 0,
      "byteLength": 1632,
      "target": 34963
    }
  ],
  "buffers": [
    {
      "name": "buffer_1_1",
      "uri": "duck_1.bin",
      "byteLength": 2148
    },
    {
      "name": "buffer_1_2",
      "uri": "duck_2.bin",
      "byteLength": 1632
    }
  ],
  "materials": [
    {
      "name": "material_1",
      "alphaMode": "OPAQUE",
      "doubleSided": false,
      "pbrMetallicRoughness": {
        "baseColorFactor": [
          0.9046611743890203,
          0.5906188409113381,
          0.04970656597728775,
          1
        ],
        "roughnessFactor": 1,
        "metallicFactor": 0
      },
      "emissiveFactor": [
        0,
        0,
        0
      ]
    }
  ],
  "meshes": [
    {
      "name": "mesh",
      "primitives": [
        {
          "attributes": {
            "POSITION": 0
          },
          "mode": 4,
          "material": 0,
          "indices": 1
        }
      ]
    }
  ],
  "nodes": [
    {
      "name": "node",
      "scale": [
        0.009999999776482582,
        0.009999999776482582,
        0.009999999776482582
      ],
      "mesh": 0
    }
  ],
  "scenes": [
    {
      "name": "scene",
      "nodes": [
        0
      ]
    }
  ]
}